<svg xmlns="http://www.w3.org/2000/svg" viewBox="0 0 512 512" role="img" aria-label="Visited places favicon">
  <defs>
    <linearGradient id="bg" x1="0" x2="0" y1="0" y2="1">
      <stop offset="0" stop-color="#f8fafc" />
      <stop offset="1" stop-color="#e2e8f0" />
    </linearGradient>
    <linearGradient id="water" x1="0" x2="1" y1="0" y2="1">
      <stop offset="0" stop-color="#7dd3fc" />
      <stop offset="1" stop-color="#0284c7" />
    </linearGradient>
    <linearGradient id="land" x1="0" x2="1" y1="0" y2="1">
      <stop offset="0" stop-color="#bef264" />
      <stop offset="1" stop-color="#4d7c0f" />
    </linearGradient>
    <radialGradient id="pin" cx="35%" cy="30%" r="70%">
      <stop offset="0" stop-color="#fb7185" />
      <stop offset="1" stop-color="#dc2626" />
    </radialGradient>
  </defs>

  <rect x="18" y="18" width="476" height="476" rx="88" fill="url(#bg)" />

  <path d="M114 190 200 154l56 24 56-24 88 36-22 184-80-30-98 30-86-30Z" fill="#ffffff" opacity="0.95" />
  <path d="M116 212 198 176l58 26 56-24 70 28-18 146-66-24-98 30-72-26Z" fill="url(#land)" opacity="0.9" />
  <path d="M120 278 188 250l38 16 30 58 58-2 44 36-72 22-84-26-70 26Z" fill="url(#water)" opacity="0.95" />
  <path d="M114 190 200 154l56 24 56-24 88 36-22 184-80-30-98 30-86-30Z" fill="none" stroke="#64748b" stroke-width="8" stroke-linejoin="round" />

  <g transform="translate(182 84)">
    <path d="M74 244c-5 0-10-2-14-6-58-62-86-99-86-146C-26 41 15 0 74 0s100 41 100 92c0 47-28 84-86 146-4 4-9 6-14 6Z" fill="url(#pin)" stroke="#7f1d1d" stroke-width="6" />
    <circle cx="74" cy="92" r="62" fill="#ef4444" />
    <path d="m45 92 23 22 40-39" fill="none" stroke="#ffffff" stroke-width="17" stroke-linecap="round" stroke-linejoin="round" />
  </g>
</svg>
